<mxfile host="app.diagrams.net" agent="Mozilla/5.0 (X11; Linux x86_64) AppleWebKit/537.36 (KHTML, like Gecko) Chrome/135.0.0.0 Safari/537.36" version="26.2.14">
  <diagram id="C5RBs43oDa-KdzZeNtuy" name="Page-1">
    <mxGraphModel dx="3538" dy="727" grid="1" gridSize="10" guides="1" tooltips="1" connect="1" arrows="1" fold="1" page="1" pageScale="1" pageWidth="827" pageHeight="1169" math="0" shadow="0">
      <root>
        <mxCell id="WIyWlLk6GJQsqaUBKTNV-0" />
        <mxCell id="WIyWlLk6GJQsqaUBKTNV-1" parent="WIyWlLk6GJQsqaUBKTNV-0" />
        <mxCell id="Sa8CodQacZAUkPH6oKOS-1" value="" style="edgeStyle=orthogonalEdgeStyle;rounded=0;orthogonalLoop=1;jettySize=auto;html=1;" edge="1" parent="WIyWlLk6GJQsqaUBKTNV-1" source="WIyWlLk6GJQsqaUBKTNV-3" target="Sa8CodQacZAUkPH6oKOS-0">
          <mxGeometry relative="1" as="geometry">
            <Array as="points">
              <mxPoint x="260" y="230" />
              <mxPoint x="260" y="230" />
            </Array>
          </mxGeometry>
        </mxCell>
        <mxCell id="WIyWlLk6GJQsqaUBKTNV-3" value="start" style="rounded=1;whiteSpace=wrap;html=1;fontSize=12;glass=0;strokeWidth=1;shadow=0;" parent="WIyWlLk6GJQsqaUBKTNV-1" vertex="1">
          <mxGeometry x="200" y="60" width="120" height="40" as="geometry" />
        </mxCell>
        <mxCell id="WIyWlLk6GJQsqaUBKTNV-11" value="Repair Lamp" style="rounded=1;whiteSpace=wrap;html=1;fontSize=12;glass=0;strokeWidth=1;shadow=0;" parent="WIyWlLk6GJQsqaUBKTNV-1" vertex="1">
          <mxGeometry x="80" y="2230" width="120" height="40" as="geometry" />
        </mxCell>
        <mxCell id="Sa8CodQacZAUkPH6oKOS-5" value="" style="edgeStyle=orthogonalEdgeStyle;rounded=0;orthogonalLoop=1;jettySize=auto;html=1;" edge="1" parent="WIyWlLk6GJQsqaUBKTNV-1" source="Sa8CodQacZAUkPH6oKOS-0" target="Sa8CodQacZAUkPH6oKOS-4">
          <mxGeometry relative="1" as="geometry">
            <Array as="points">
              <mxPoint x="260" y="340" />
              <mxPoint x="-840" y="340" />
            </Array>
          </mxGeometry>
        </mxCell>
        <mxCell id="Sa8CodQacZAUkPH6oKOS-12" value="" style="edgeStyle=orthogonalEdgeStyle;rounded=0;orthogonalLoop=1;jettySize=auto;html=1;entryX=0.5;entryY=0;entryDx=0;entryDy=0;" edge="1" parent="WIyWlLk6GJQsqaUBKTNV-1" target="Sa8CodQacZAUkPH6oKOS-11">
          <mxGeometry relative="1" as="geometry">
            <mxPoint x="260" y="280" as="sourcePoint" />
            <mxPoint x="250" y="430" as="targetPoint" />
            <Array as="points">
              <mxPoint x="260" y="340" />
              <mxPoint x="10" y="340" />
            </Array>
          </mxGeometry>
        </mxCell>
        <mxCell id="Sa8CodQacZAUkPH6oKOS-14" value="" style="edgeStyle=orthogonalEdgeStyle;rounded=0;orthogonalLoop=1;jettySize=auto;html=1;" edge="1" parent="WIyWlLk6GJQsqaUBKTNV-1" source="Sa8CodQacZAUkPH6oKOS-0" target="Sa8CodQacZAUkPH6oKOS-13">
          <mxGeometry relative="1" as="geometry">
            <Array as="points">
              <mxPoint x="260" y="340" />
              <mxPoint x="470" y="340" />
            </Array>
          </mxGeometry>
        </mxCell>
        <mxCell id="Sa8CodQacZAUkPH6oKOS-16" value="" style="edgeStyle=orthogonalEdgeStyle;rounded=0;orthogonalLoop=1;jettySize=auto;html=1;exitX=0.5;exitY=1;exitDx=0;exitDy=0;entryX=0.5;entryY=0;entryDx=0;entryDy=0;" edge="1" parent="WIyWlLk6GJQsqaUBKTNV-1" source="Sa8CodQacZAUkPH6oKOS-0" target="Sa8CodQacZAUkPH6oKOS-15">
          <mxGeometry relative="1" as="geometry">
            <mxPoint x="230" y="250" as="sourcePoint" />
            <mxPoint x="940" y="370" as="targetPoint" />
            <Array as="points">
              <mxPoint x="260" y="320" />
              <mxPoint x="970" y="320" />
            </Array>
          </mxGeometry>
        </mxCell>
        <mxCell id="Sa8CodQacZAUkPH6oKOS-18" value="" style="edgeStyle=orthogonalEdgeStyle;rounded=0;orthogonalLoop=1;jettySize=auto;html=1;" edge="1" parent="WIyWlLk6GJQsqaUBKTNV-1" source="Sa8CodQacZAUkPH6oKOS-0" target="Sa8CodQacZAUkPH6oKOS-17">
          <mxGeometry relative="1" as="geometry" />
        </mxCell>
        <mxCell id="Sa8CodQacZAUkPH6oKOS-20" value="" style="edgeStyle=orthogonalEdgeStyle;rounded=0;orthogonalLoop=1;jettySize=auto;html=1;" edge="1" parent="WIyWlLk6GJQsqaUBKTNV-1" source="Sa8CodQacZAUkPH6oKOS-0" target="Sa8CodQacZAUkPH6oKOS-19">
          <mxGeometry relative="1" as="geometry" />
        </mxCell>
        <mxCell id="Sa8CodQacZAUkPH6oKOS-139" value="" style="edgeStyle=orthogonalEdgeStyle;rounded=0;orthogonalLoop=1;jettySize=auto;html=1;" edge="1" parent="WIyWlLk6GJQsqaUBKTNV-1" source="Sa8CodQacZAUkPH6oKOS-0" target="Sa8CodQacZAUkPH6oKOS-138">
          <mxGeometry relative="1" as="geometry" />
        </mxCell>
        <mxCell id="Sa8CodQacZAUkPH6oKOS-141" value="" style="edgeStyle=orthogonalEdgeStyle;rounded=0;orthogonalLoop=1;jettySize=auto;html=1;" edge="1" parent="WIyWlLk6GJQsqaUBKTNV-1" source="Sa8CodQacZAUkPH6oKOS-0" target="Sa8CodQacZAUkPH6oKOS-140">
          <mxGeometry relative="1" as="geometry" />
        </mxCell>
        <mxCell id="Sa8CodQacZAUkPH6oKOS-0" value="run_bot.py" style="whiteSpace=wrap;html=1;rounded=1;glass=0;strokeWidth=1;shadow=0;" vertex="1" parent="WIyWlLk6GJQsqaUBKTNV-1">
          <mxGeometry x="200" y="220" width="120" height="60" as="geometry" />
        </mxCell>
        <mxCell id="Sa8CodQacZAUkPH6oKOS-22" value="" style="edgeStyle=orthogonalEdgeStyle;rounded=0;orthogonalLoop=1;jettySize=auto;html=1;" edge="1" parent="WIyWlLk6GJQsqaUBKTNV-1" source="Sa8CodQacZAUkPH6oKOS-4" target="Sa8CodQacZAUkPH6oKOS-21">
          <mxGeometry relative="1" as="geometry" />
        </mxCell>
        <mxCell id="Sa8CodQacZAUkPH6oKOS-24" value="" style="edgeStyle=orthogonalEdgeStyle;rounded=0;orthogonalLoop=1;jettySize=auto;html=1;" edge="1" parent="WIyWlLk6GJQsqaUBKTNV-1" source="Sa8CodQacZAUkPH6oKOS-4" target="Sa8CodQacZAUkPH6oKOS-23">
          <mxGeometry relative="1" as="geometry" />
        </mxCell>
        <mxCell id="Sa8CodQacZAUkPH6oKOS-29" value="" style="edgeStyle=orthogonalEdgeStyle;rounded=0;orthogonalLoop=1;jettySize=auto;html=1;" edge="1" parent="WIyWlLk6GJQsqaUBKTNV-1" source="Sa8CodQacZAUkPH6oKOS-4" target="Sa8CodQacZAUkPH6oKOS-28">
          <mxGeometry relative="1" as="geometry" />
        </mxCell>
        <mxCell id="Sa8CodQacZAUkPH6oKOS-41" value="" style="edgeStyle=orthogonalEdgeStyle;rounded=0;orthogonalLoop=1;jettySize=auto;html=1;" edge="1" parent="WIyWlLk6GJQsqaUBKTNV-1" source="Sa8CodQacZAUkPH6oKOS-4" target="Sa8CodQacZAUkPH6oKOS-40">
          <mxGeometry relative="1" as="geometry" />
        </mxCell>
        <mxCell id="Sa8CodQacZAUkPH6oKOS-43" value="" style="edgeStyle=orthogonalEdgeStyle;rounded=0;orthogonalLoop=1;jettySize=auto;html=1;" edge="1" parent="WIyWlLk6GJQsqaUBKTNV-1" source="Sa8CodQacZAUkPH6oKOS-4" target="Sa8CodQacZAUkPH6oKOS-42">
          <mxGeometry relative="1" as="geometry" />
        </mxCell>
        <mxCell id="Sa8CodQacZAUkPH6oKOS-4" value="initialization of the bot&amp;nbsp;" style="whiteSpace=wrap;html=1;rounded=1;glass=0;strokeWidth=1;shadow=0;" vertex="1" parent="WIyWlLk6GJQsqaUBKTNV-1">
          <mxGeometry x="-900" y="420" width="120" height="60" as="geometry" />
        </mxCell>
        <mxCell id="Sa8CodQacZAUkPH6oKOS-57" value="" style="edgeStyle=orthogonalEdgeStyle;rounded=0;orthogonalLoop=1;jettySize=auto;html=1;" edge="1" parent="WIyWlLk6GJQsqaUBKTNV-1" source="Sa8CodQacZAUkPH6oKOS-11" target="Sa8CodQacZAUkPH6oKOS-56">
          <mxGeometry relative="1" as="geometry" />
        </mxCell>
        <mxCell id="Sa8CodQacZAUkPH6oKOS-59" value="" style="edgeStyle=orthogonalEdgeStyle;rounded=0;orthogonalLoop=1;jettySize=auto;html=1;" edge="1" parent="WIyWlLk6GJQsqaUBKTNV-1" source="Sa8CodQacZAUkPH6oKOS-11" target="Sa8CodQacZAUkPH6oKOS-58">
          <mxGeometry relative="1" as="geometry">
            <Array as="points">
              <mxPoint x="10" y="590" />
              <mxPoint x="120" y="590" />
            </Array>
          </mxGeometry>
        </mxCell>
        <mxCell id="Sa8CodQacZAUkPH6oKOS-11" value="historical data collection&amp;nbsp;" style="whiteSpace=wrap;html=1;rounded=1;glass=0;strokeWidth=1;shadow=0;" vertex="1" parent="WIyWlLk6GJQsqaUBKTNV-1">
          <mxGeometry x="-50" y="430" width="120" height="60" as="geometry" />
        </mxCell>
        <mxCell id="Sa8CodQacZAUkPH6oKOS-74" value="" style="edgeStyle=orthogonalEdgeStyle;rounded=0;orthogonalLoop=1;jettySize=auto;html=1;" edge="1" parent="WIyWlLk6GJQsqaUBKTNV-1" source="Sa8CodQacZAUkPH6oKOS-13" target="Sa8CodQacZAUkPH6oKOS-73">
          <mxGeometry relative="1" as="geometry" />
        </mxCell>
        <mxCell id="Sa8CodQacZAUkPH6oKOS-76" value="" style="edgeStyle=orthogonalEdgeStyle;rounded=0;orthogonalLoop=1;jettySize=auto;html=1;" edge="1" parent="WIyWlLk6GJQsqaUBKTNV-1" source="Sa8CodQacZAUkPH6oKOS-13" target="Sa8CodQacZAUkPH6oKOS-75">
          <mxGeometry relative="1" as="geometry" />
        </mxCell>
        <mxCell id="Sa8CodQacZAUkPH6oKOS-78" value="" style="edgeStyle=orthogonalEdgeStyle;rounded=0;orthogonalLoop=1;jettySize=auto;html=1;" edge="1" parent="WIyWlLk6GJQsqaUBKTNV-1" source="Sa8CodQacZAUkPH6oKOS-13" target="Sa8CodQacZAUkPH6oKOS-77">
          <mxGeometry relative="1" as="geometry" />
        </mxCell>
        <mxCell id="Sa8CodQacZAUkPH6oKOS-13" value="live price streaming" style="whiteSpace=wrap;html=1;rounded=1;glass=0;strokeWidth=1;shadow=0;" vertex="1" parent="WIyWlLk6GJQsqaUBKTNV-1">
          <mxGeometry x="414" y="430" width="120" height="60" as="geometry" />
        </mxCell>
        <mxCell id="Sa8CodQacZAUkPH6oKOS-90" value="" style="edgeStyle=orthogonalEdgeStyle;rounded=0;orthogonalLoop=1;jettySize=auto;html=1;" edge="1" parent="WIyWlLk6GJQsqaUBKTNV-1" target="Sa8CodQacZAUkPH6oKOS-89">
          <mxGeometry relative="1" as="geometry">
            <mxPoint x="910" y="470" as="sourcePoint" />
          </mxGeometry>
        </mxCell>
        <mxCell id="Sa8CodQacZAUkPH6oKOS-92" value="" style="edgeStyle=orthogonalEdgeStyle;rounded=0;orthogonalLoop=1;jettySize=auto;html=1;exitX=1;exitY=0.5;exitDx=0;exitDy=0;entryX=0.5;entryY=1;entryDx=0;entryDy=0;" edge="1" parent="WIyWlLk6GJQsqaUBKTNV-1" source="Sa8CodQacZAUkPH6oKOS-15" target="Sa8CodQacZAUkPH6oKOS-91">
          <mxGeometry relative="1" as="geometry">
            <mxPoint x="920" y="490" as="sourcePoint" />
            <mxPoint x="1020" y="970" as="targetPoint" />
          </mxGeometry>
        </mxCell>
        <mxCell id="Sa8CodQacZAUkPH6oKOS-97" value="" style="edgeStyle=orthogonalEdgeStyle;rounded=0;orthogonalLoop=1;jettySize=auto;html=1;" edge="1" parent="WIyWlLk6GJQsqaUBKTNV-1" source="Sa8CodQacZAUkPH6oKOS-15" target="Sa8CodQacZAUkPH6oKOS-96">
          <mxGeometry relative="1" as="geometry" />
        </mxCell>
        <mxCell id="Sa8CodQacZAUkPH6oKOS-107" value="" style="edgeStyle=orthogonalEdgeStyle;rounded=0;orthogonalLoop=1;jettySize=auto;html=1;" edge="1" parent="WIyWlLk6GJQsqaUBKTNV-1" source="Sa8CodQacZAUkPH6oKOS-15" target="Sa8CodQacZAUkPH6oKOS-106">
          <mxGeometry relative="1" as="geometry" />
        </mxCell>
        <mxCell id="Sa8CodQacZAUkPH6oKOS-15" value="Indicator Calculation&lt;div&gt;strategy Calculation&lt;/div&gt;" style="whiteSpace=wrap;html=1;rounded=1;glass=0;strokeWidth=1;shadow=0;" vertex="1" parent="WIyWlLk6GJQsqaUBKTNV-1">
          <mxGeometry x="910" y="450" width="120" height="60" as="geometry" />
        </mxCell>
        <mxCell id="Sa8CodQacZAUkPH6oKOS-123" value="" style="edgeStyle=orthogonalEdgeStyle;rounded=0;orthogonalLoop=1;jettySize=auto;html=1;" edge="1" parent="WIyWlLk6GJQsqaUBKTNV-1" source="Sa8CodQacZAUkPH6oKOS-17" target="Sa8CodQacZAUkPH6oKOS-122">
          <mxGeometry relative="1" as="geometry" />
        </mxCell>
        <mxCell id="Sa8CodQacZAUkPH6oKOS-125" value="" style="edgeStyle=orthogonalEdgeStyle;rounded=0;orthogonalLoop=1;jettySize=auto;html=1;" edge="1" parent="WIyWlLk6GJQsqaUBKTNV-1" source="Sa8CodQacZAUkPH6oKOS-17" target="Sa8CodQacZAUkPH6oKOS-124">
          <mxGeometry relative="1" as="geometry" />
        </mxCell>
        <mxCell id="Sa8CodQacZAUkPH6oKOS-127" value="" style="edgeStyle=orthogonalEdgeStyle;rounded=0;orthogonalLoop=1;jettySize=auto;html=1;" edge="1" parent="WIyWlLk6GJQsqaUBKTNV-1" source="Sa8CodQacZAUkPH6oKOS-17" target="Sa8CodQacZAUkPH6oKOS-126">
          <mxGeometry relative="1" as="geometry" />
        </mxCell>
        <mxCell id="Sa8CodQacZAUkPH6oKOS-17" value="Strategy Execution" style="whiteSpace=wrap;html=1;rounded=1;glass=0;strokeWidth=1;shadow=0;" vertex="1" parent="WIyWlLk6GJQsqaUBKTNV-1">
          <mxGeometry x="2230" y="450" width="120" height="60" as="geometry" />
        </mxCell>
        <mxCell id="Sa8CodQacZAUkPH6oKOS-19" value="save data&amp;nbsp;" style="whiteSpace=wrap;html=1;rounded=1;glass=0;strokeWidth=1;shadow=0;" vertex="1" parent="WIyWlLk6GJQsqaUBKTNV-1">
          <mxGeometry x="3220" y="390" width="120" height="60" as="geometry" />
        </mxCell>
        <mxCell id="Sa8CodQacZAUkPH6oKOS-32" value="" style="edgeStyle=orthogonalEdgeStyle;rounded=0;orthogonalLoop=1;jettySize=auto;html=1;" edge="1" parent="WIyWlLk6GJQsqaUBKTNV-1" source="Sa8CodQacZAUkPH6oKOS-21" target="Sa8CodQacZAUkPH6oKOS-31">
          <mxGeometry relative="1" as="geometry" />
        </mxCell>
        <mxCell id="Sa8CodQacZAUkPH6oKOS-21" value="instrument_collection.py" style="whiteSpace=wrap;html=1;rounded=1;glass=0;strokeWidth=1;shadow=0;" vertex="1" parent="WIyWlLk6GJQsqaUBKTNV-1">
          <mxGeometry x="-1110" y="690" width="140" height="60" as="geometry" />
        </mxCell>
        <mxCell id="Sa8CodQacZAUkPH6oKOS-38" value="" style="edgeStyle=orthogonalEdgeStyle;rounded=0;orthogonalLoop=1;jettySize=auto;html=1;" edge="1" parent="WIyWlLk6GJQsqaUBKTNV-1" source="Sa8CodQacZAUkPH6oKOS-23" target="Sa8CodQacZAUkPH6oKOS-37">
          <mxGeometry relative="1" as="geometry" />
        </mxCell>
        <mxCell id="Sa8CodQacZAUkPH6oKOS-23" value="trade_settings.py" style="whiteSpace=wrap;html=1;rounded=1;glass=0;strokeWidth=1;shadow=0;" vertex="1" parent="WIyWlLk6GJQsqaUBKTNV-1">
          <mxGeometry x="-900" y="690" width="120" height="60" as="geometry" />
        </mxCell>
        <mxCell id="Sa8CodQacZAUkPH6oKOS-36" value="" style="edgeStyle=orthogonalEdgeStyle;rounded=0;orthogonalLoop=1;jettySize=auto;html=1;" edge="1" parent="WIyWlLk6GJQsqaUBKTNV-1" source="Sa8CodQacZAUkPH6oKOS-28" target="Sa8CodQacZAUkPH6oKOS-35">
          <mxGeometry relative="1" as="geometry" />
        </mxCell>
        <mxCell id="Sa8CodQacZAUkPH6oKOS-28" value="openfx_api.py" style="whiteSpace=wrap;html=1;rounded=1;glass=0;strokeWidth=1;shadow=0;" vertex="1" parent="WIyWlLk6GJQsqaUBKTNV-1">
          <mxGeometry x="-1340" y="690" width="120" height="60" as="geometry" />
        </mxCell>
        <mxCell id="Sa8CodQacZAUkPH6oKOS-30" style="edgeStyle=orthogonalEdgeStyle;rounded=0;orthogonalLoop=1;jettySize=auto;html=1;exitX=0.5;exitY=1;exitDx=0;exitDy=0;entryX=0.192;entryY=0.95;entryDx=0;entryDy=0;entryPerimeter=0;" edge="1" parent="WIyWlLk6GJQsqaUBKTNV-1" source="Sa8CodQacZAUkPH6oKOS-26" target="Sa8CodQacZAUkPH6oKOS-26">
          <mxGeometry relative="1" as="geometry" />
        </mxCell>
        <mxCell id="Sa8CodQacZAUkPH6oKOS-34" value="" style="edgeStyle=orthogonalEdgeStyle;rounded=0;orthogonalLoop=1;jettySize=auto;html=1;" edge="1" parent="WIyWlLk6GJQsqaUBKTNV-1" source="Sa8CodQacZAUkPH6oKOS-31" target="Sa8CodQacZAUkPH6oKOS-33">
          <mxGeometry relative="1" as="geometry" />
        </mxCell>
        <mxCell id="Sa8CodQacZAUkPH6oKOS-31" value="loading instruments and pairs from instrument.json" style="whiteSpace=wrap;html=1;rounded=1;glass=0;strokeWidth=1;shadow=0;" vertex="1" parent="WIyWlLk6GJQsqaUBKTNV-1">
          <mxGeometry x="-1100" y="880" width="120" height="60" as="geometry" />
        </mxCell>
        <mxCell id="Sa8CodQacZAUkPH6oKOS-33" value="instruments.json" style="whiteSpace=wrap;html=1;rounded=1;glass=0;strokeWidth=1;shadow=0;" vertex="1" parent="WIyWlLk6GJQsqaUBKTNV-1">
          <mxGeometry x="-1100" y="1010" width="120" height="60" as="geometry" />
        </mxCell>
        <mxCell id="Sa8CodQacZAUkPH6oKOS-35" value="For connecting to the fxopen throught REST API" style="whiteSpace=wrap;html=1;rounded=1;glass=0;strokeWidth=1;shadow=0;" vertex="1" parent="WIyWlLk6GJQsqaUBKTNV-1">
          <mxGeometry x="-1340" y="880" width="120" height="60" as="geometry" />
        </mxCell>
        <mxCell id="Sa8CodQacZAUkPH6oKOS-37" value="For applying the settings for each pair Settings such as defining (RSI period,EMA period,etc" style="whiteSpace=wrap;html=1;rounded=1;glass=0;strokeWidth=1;shadow=0;" vertex="1" parent="WIyWlLk6GJQsqaUBKTNV-1">
          <mxGeometry x="-930" y="880" width="180" height="60" as="geometry" />
        </mxCell>
        <mxCell id="Sa8CodQacZAUkPH6oKOS-39" value="" style="edgeStyle=orthogonalEdgeStyle;rounded=0;orthogonalLoop=1;jettySize=auto;html=1;exitX=1;exitY=0.5;exitDx=0;exitDy=0;" edge="1" parent="WIyWlLk6GJQsqaUBKTNV-1" source="Sa8CodQacZAUkPH6oKOS-4" target="Sa8CodQacZAUkPH6oKOS-26">
          <mxGeometry relative="1" as="geometry">
            <mxPoint x="-740" y="440" as="sourcePoint" />
            <mxPoint x="-410" y="680" as="targetPoint" />
            <Array as="points" />
          </mxGeometry>
        </mxCell>
        <mxCell id="Sa8CodQacZAUkPH6oKOS-55" value="" style="edgeStyle=orthogonalEdgeStyle;rounded=0;orthogonalLoop=1;jettySize=auto;html=1;" edge="1" parent="WIyWlLk6GJQsqaUBKTNV-1" source="Sa8CodQacZAUkPH6oKOS-26" target="Sa8CodQacZAUkPH6oKOS-54">
          <mxGeometry relative="1" as="geometry" />
        </mxCell>
        <mxCell id="Sa8CodQacZAUkPH6oKOS-26" value="bot.py" style="whiteSpace=wrap;html=1;rounded=1;glass=0;strokeWidth=1;shadow=0;" vertex="1" parent="WIyWlLk6GJQsqaUBKTNV-1">
          <mxGeometry x="-330" y="690" width="120" height="60" as="geometry" />
        </mxCell>
        <mxCell id="Sa8CodQacZAUkPH6oKOS-45" value="" style="edgeStyle=orthogonalEdgeStyle;rounded=0;orthogonalLoop=1;jettySize=auto;html=1;" edge="1" parent="WIyWlLk6GJQsqaUBKTNV-1" source="Sa8CodQacZAUkPH6oKOS-40" target="Sa8CodQacZAUkPH6oKOS-44">
          <mxGeometry relative="1" as="geometry" />
        </mxCell>
        <mxCell id="Sa8CodQacZAUkPH6oKOS-40" value="Candle_manager.py" style="whiteSpace=wrap;html=1;rounded=1;glass=0;strokeWidth=1;shadow=0;" vertex="1" parent="WIyWlLk6GJQsqaUBKTNV-1">
          <mxGeometry x="-720" y="690" width="120" height="60" as="geometry" />
        </mxCell>
        <mxCell id="Sa8CodQacZAUkPH6oKOS-47" value="" style="edgeStyle=orthogonalEdgeStyle;rounded=0;orthogonalLoop=1;jettySize=auto;html=1;" edge="1" parent="WIyWlLk6GJQsqaUBKTNV-1" source="Sa8CodQacZAUkPH6oKOS-50" target="Sa8CodQacZAUkPH6oKOS-46">
          <mxGeometry relative="1" as="geometry">
            <Array as="points">
              <mxPoint x="-480" y="960" />
              <mxPoint x="-560" y="960" />
            </Array>
          </mxGeometry>
        </mxCell>
        <mxCell id="Sa8CodQacZAUkPH6oKOS-49" value="" style="edgeStyle=orthogonalEdgeStyle;rounded=0;orthogonalLoop=1;jettySize=auto;html=1;" edge="1" parent="WIyWlLk6GJQsqaUBKTNV-1" source="Sa8CodQacZAUkPH6oKOS-50" target="Sa8CodQacZAUkPH6oKOS-48">
          <mxGeometry relative="1" as="geometry">
            <Array as="points">
              <mxPoint x="-480" y="960" />
              <mxPoint x="-400" y="960" />
            </Array>
          </mxGeometry>
        </mxCell>
        <mxCell id="Sa8CodQacZAUkPH6oKOS-51" value="" style="edgeStyle=orthogonalEdgeStyle;rounded=0;orthogonalLoop=1;jettySize=auto;html=1;" edge="1" parent="WIyWlLk6GJQsqaUBKTNV-1" source="Sa8CodQacZAUkPH6oKOS-42" target="Sa8CodQacZAUkPH6oKOS-50">
          <mxGeometry relative="1" as="geometry" />
        </mxCell>
        <mxCell id="Sa8CodQacZAUkPH6oKOS-42" value="Stream_socket.py" style="whiteSpace=wrap;html=1;rounded=1;glass=0;strokeWidth=1;shadow=0;" vertex="1" parent="WIyWlLk6GJQsqaUBKTNV-1">
          <mxGeometry x="-540" y="690" width="120" height="60" as="geometry" />
        </mxCell>
        <mxCell id="Sa8CodQacZAUkPH6oKOS-44" value="It is responsible for managing rolling data and updating with live prices" style="whiteSpace=wrap;html=1;rounded=1;glass=0;strokeWidth=1;shadow=0;" vertex="1" parent="WIyWlLk6GJQsqaUBKTNV-1">
          <mxGeometry x="-735" y="880" width="150" height="60" as="geometry" />
        </mxCell>
        <mxCell id="Sa8CodQacZAUkPH6oKOS-46" value="shared_prices" style="whiteSpace=wrap;html=1;rounded=1;glass=0;strokeWidth=1;shadow=0;" vertex="1" parent="WIyWlLk6GJQsqaUBKTNV-1">
          <mxGeometry x="-620" y="1010" width="120" height="60" as="geometry" />
        </mxCell>
        <mxCell id="Sa8CodQacZAUkPH6oKOS-48" value="shared_prices_events" style="whiteSpace=wrap;html=1;rounded=1;glass=0;strokeWidth=1;shadow=0;" vertex="1" parent="WIyWlLk6GJQsqaUBKTNV-1">
          <mxGeometry x="-470" y="1010" width="130" height="60" as="geometry" />
        </mxCell>
        <mxCell id="Sa8CodQacZAUkPH6oKOS-52" value="" style="edgeStyle=orthogonalEdgeStyle;rounded=0;orthogonalLoop=1;jettySize=auto;html=1;" edge="1" parent="WIyWlLk6GJQsqaUBKTNV-1" source="Sa8CodQacZAUkPH6oKOS-42" target="Sa8CodQacZAUkPH6oKOS-50">
          <mxGeometry relative="1" as="geometry">
            <mxPoint x="-480" y="750" as="sourcePoint" />
            <mxPoint x="-400" y="1010" as="targetPoint" />
          </mxGeometry>
        </mxCell>
        <mxCell id="Sa8CodQacZAUkPH6oKOS-53" value="" style="edgeStyle=orthogonalEdgeStyle;rounded=0;orthogonalLoop=1;jettySize=auto;html=1;" edge="1" parent="WIyWlLk6GJQsqaUBKTNV-1" source="Sa8CodQacZAUkPH6oKOS-42" target="Sa8CodQacZAUkPH6oKOS-50">
          <mxGeometry relative="1" as="geometry">
            <mxPoint x="-480" y="750" as="sourcePoint" />
            <mxPoint x="-570" y="1010" as="targetPoint" />
          </mxGeometry>
        </mxCell>
        <mxCell id="Sa8CodQacZAUkPH6oKOS-50" value="Responsible for initializing to receive live price from this two components" style="whiteSpace=wrap;html=1;rounded=1;glass=0;strokeWidth=1;shadow=0;" vertex="1" parent="WIyWlLk6GJQsqaUBKTNV-1">
          <mxGeometry x="-555" y="880" width="150" height="60" as="geometry" />
        </mxCell>
        <mxCell id="Sa8CodQacZAUkPH6oKOS-54" value="Here is where the main instance of Bot class is where all the functions come together" style="whiteSpace=wrap;html=1;rounded=1;glass=0;strokeWidth=1;shadow=0;" vertex="1" parent="WIyWlLk6GJQsqaUBKTNV-1">
          <mxGeometry x="-377.5" y="880" width="215" height="60" as="geometry" />
        </mxCell>
        <mxCell id="Sa8CodQacZAUkPH6oKOS-61" value="" style="edgeStyle=orthogonalEdgeStyle;rounded=0;orthogonalLoop=1;jettySize=auto;html=1;" edge="1" parent="WIyWlLk6GJQsqaUBKTNV-1" source="Sa8CodQacZAUkPH6oKOS-56" target="Sa8CodQacZAUkPH6oKOS-60">
          <mxGeometry relative="1" as="geometry" />
        </mxCell>
        <mxCell id="Sa8CodQacZAUkPH6oKOS-56" value="instruments.json" style="whiteSpace=wrap;html=1;rounded=1;glass=0;strokeWidth=1;shadow=0;" vertex="1" parent="WIyWlLk6GJQsqaUBKTNV-1">
          <mxGeometry x="-140" y="690" width="120" height="60" as="geometry" />
        </mxCell>
        <mxCell id="Sa8CodQacZAUkPH6oKOS-67" value="" style="edgeStyle=orthogonalEdgeStyle;rounded=0;orthogonalLoop=1;jettySize=auto;html=1;" edge="1" parent="WIyWlLk6GJQsqaUBKTNV-1" source="Sa8CodQacZAUkPH6oKOS-58" target="Sa8CodQacZAUkPH6oKOS-66">
          <mxGeometry relative="1" as="geometry" />
        </mxCell>
        <mxCell id="Sa8CodQacZAUkPH6oKOS-58" value="openfx_api.py" style="whiteSpace=wrap;html=1;rounded=1;glass=0;strokeWidth=1;shadow=0;" vertex="1" parent="WIyWlLk6GJQsqaUBKTNV-1">
          <mxGeometry x="50" y="690" width="120" height="60" as="geometry" />
        </mxCell>
        <mxCell id="Sa8CodQacZAUkPH6oKOS-60" value="all the important information on the pair is collected for fetching the histrocial data, data such as symbol, precision,tradeamountstep&amp;nbsp;" style="whiteSpace=wrap;html=1;rounded=1;glass=0;strokeWidth=1;shadow=0;" vertex="1" parent="WIyWlLk6GJQsqaUBKTNV-1">
          <mxGeometry x="-190.62" y="980" width="221.25" height="80" as="geometry" />
        </mxCell>
        <mxCell id="Sa8CodQacZAUkPH6oKOS-69" value="" style="edgeStyle=orthogonalEdgeStyle;rounded=0;orthogonalLoop=1;jettySize=auto;html=1;" edge="1" parent="WIyWlLk6GJQsqaUBKTNV-1" source="Sa8CodQacZAUkPH6oKOS-66" target="Sa8CodQacZAUkPH6oKOS-68">
          <mxGeometry relative="1" as="geometry" />
        </mxCell>
        <mxCell id="Sa8CodQacZAUkPH6oKOS-66" value="def fetch_candles" style="whiteSpace=wrap;html=1;rounded=1;glass=0;strokeWidth=1;shadow=0;" vertex="1" parent="WIyWlLk6GJQsqaUBKTNV-1">
          <mxGeometry x="50" y="830" width="120" height="60" as="geometry" />
        </mxCell>
        <mxCell id="Sa8CodQacZAUkPH6oKOS-71" value="" style="edgeStyle=orthogonalEdgeStyle;rounded=0;orthogonalLoop=1;jettySize=auto;html=1;" edge="1" parent="WIyWlLk6GJQsqaUBKTNV-1" source="Sa8CodQacZAUkPH6oKOS-68" target="Sa8CodQacZAUkPH6oKOS-70">
          <mxGeometry relative="1" as="geometry" />
        </mxCell>
        <mxCell id="Sa8CodQacZAUkPH6oKOS-68" value="This is the fuction respondable for fetching and saving the histroical data and save it to a .pkl file in the ./data folder" style="whiteSpace=wrap;html=1;rounded=1;glass=0;strokeWidth=1;shadow=0;" vertex="1" parent="WIyWlLk6GJQsqaUBKTNV-1">
          <mxGeometry x="1.25" y="1090" width="217.5" height="70" as="geometry" />
        </mxCell>
        <mxCell id="Sa8CodQacZAUkPH6oKOS-70" value="&lt;div&gt;./data&lt;/div&gt;&lt;div&gt;&lt;br&gt;&lt;/div&gt;XAUUSD_M1_rolling.pkl" style="whiteSpace=wrap;html=1;rounded=1;glass=0;strokeWidth=1;shadow=0;" vertex="1" parent="WIyWlLk6GJQsqaUBKTNV-1">
          <mxGeometry x="35" y="1250" width="150" height="60" as="geometry" />
        </mxCell>
        <mxCell id="Sa8CodQacZAUkPH6oKOS-80" value="" style="edgeStyle=orthogonalEdgeStyle;rounded=0;orthogonalLoop=1;jettySize=auto;html=1;" edge="1" parent="WIyWlLk6GJQsqaUBKTNV-1" source="Sa8CodQacZAUkPH6oKOS-73" target="Sa8CodQacZAUkPH6oKOS-79">
          <mxGeometry relative="1" as="geometry" />
        </mxCell>
        <mxCell id="Sa8CodQacZAUkPH6oKOS-73" value="stream_prices.py" style="whiteSpace=wrap;html=1;rounded=1;glass=0;strokeWidth=1;shadow=0;" vertex="1" parent="WIyWlLk6GJQsqaUBKTNV-1">
          <mxGeometry x="240" y="690" width="120" height="60" as="geometry" />
        </mxCell>
        <mxCell id="Sa8CodQacZAUkPH6oKOS-84" value="" style="edgeStyle=orthogonalEdgeStyle;rounded=0;orthogonalLoop=1;jettySize=auto;html=1;" edge="1" parent="WIyWlLk6GJQsqaUBKTNV-1" source="Sa8CodQacZAUkPH6oKOS-75" target="Sa8CodQacZAUkPH6oKOS-83">
          <mxGeometry relative="1" as="geometry" />
        </mxCell>
        <mxCell id="Sa8CodQacZAUkPH6oKOS-75" value="stream_processor.py" style="whiteSpace=wrap;html=1;rounded=1;glass=0;strokeWidth=1;shadow=0;" vertex="1" parent="WIyWlLk6GJQsqaUBKTNV-1">
          <mxGeometry x="414" y="690" width="120" height="60" as="geometry" />
        </mxCell>
        <mxCell id="Sa8CodQacZAUkPH6oKOS-86" value="" style="edgeStyle=orthogonalEdgeStyle;rounded=0;orthogonalLoop=1;jettySize=auto;html=1;" edge="1" parent="WIyWlLk6GJQsqaUBKTNV-1" source="Sa8CodQacZAUkPH6oKOS-77" target="Sa8CodQacZAUkPH6oKOS-85">
          <mxGeometry relative="1" as="geometry" />
        </mxCell>
        <mxCell id="Sa8CodQacZAUkPH6oKOS-77" value="stream_worker.py" style="whiteSpace=wrap;html=1;rounded=1;glass=0;strokeWidth=1;shadow=0;" vertex="1" parent="WIyWlLk6GJQsqaUBKTNV-1">
          <mxGeometry x="580" y="690" width="120" height="60" as="geometry" />
        </mxCell>
        <mxCell id="Sa8CodQacZAUkPH6oKOS-82" value="" style="edgeStyle=orthogonalEdgeStyle;rounded=0;orthogonalLoop=1;jettySize=auto;html=1;" edge="1" parent="WIyWlLk6GJQsqaUBKTNV-1" source="Sa8CodQacZAUkPH6oKOS-79" target="Sa8CodQacZAUkPH6oKOS-81">
          <mxGeometry relative="1" as="geometry" />
        </mxCell>
        <mxCell id="Sa8CodQacZAUkPH6oKOS-79" value="it creates a thread that streams live prices from the API and updates the shared_prices component" style="whiteSpace=wrap;html=1;rounded=1;glass=0;strokeWidth=1;shadow=0;" vertex="1" parent="WIyWlLk6GJQsqaUBKTNV-1">
          <mxGeometry x="212.5" y="850" width="175" height="70" as="geometry" />
        </mxCell>
        <mxCell id="Sa8CodQacZAUkPH6oKOS-81" value="shared_prices" style="whiteSpace=wrap;html=1;rounded=1;glass=0;strokeWidth=1;shadow=0;" vertex="1" parent="WIyWlLk6GJQsqaUBKTNV-1">
          <mxGeometry x="240" y="1005" width="120" height="60" as="geometry" />
        </mxCell>
        <mxCell id="Sa8CodQacZAUkPH6oKOS-83" value="processes live price data for each trading pair and updates rolling data" style="whiteSpace=wrap;html=1;rounded=1;glass=0;strokeWidth=1;shadow=0;" vertex="1" parent="WIyWlLk6GJQsqaUBKTNV-1">
          <mxGeometry x="401" y="850" width="146" height="65" as="geometry" />
        </mxCell>
        <mxCell id="Sa8CodQacZAUkPH6oKOS-85" value="its handles tasks queued for processing, such as waiting for new data to arrive from the api and processes the data&amp;nbsp;" style="whiteSpace=wrap;html=1;rounded=1;glass=0;strokeWidth=1;shadow=0;" vertex="1" parent="WIyWlLk6GJQsqaUBKTNV-1">
          <mxGeometry x="560" y="842.5" width="160" height="80" as="geometry" />
        </mxCell>
        <mxCell id="Sa8CodQacZAUkPH6oKOS-99" value="" style="edgeStyle=orthogonalEdgeStyle;rounded=0;orthogonalLoop=1;jettySize=auto;html=1;" edge="1" parent="WIyWlLk6GJQsqaUBKTNV-1" source="Sa8CodQacZAUkPH6oKOS-89" target="Sa8CodQacZAUkPH6oKOS-98">
          <mxGeometry relative="1" as="geometry" />
        </mxCell>
        <mxCell id="Sa8CodQacZAUkPH6oKOS-89" value="openfx_api.py" style="whiteSpace=wrap;html=1;rounded=1;glass=0;strokeWidth=1;shadow=0;" vertex="1" parent="WIyWlLk6GJQsqaUBKTNV-1">
          <mxGeometry x="770" y="640" width="120" height="60" as="geometry" />
        </mxCell>
        <mxCell id="Sa8CodQacZAUkPH6oKOS-105" value="" style="edgeStyle=orthogonalEdgeStyle;rounded=0;orthogonalLoop=1;jettySize=auto;html=1;" edge="1" parent="WIyWlLk6GJQsqaUBKTNV-1" source="Sa8CodQacZAUkPH6oKOS-91" target="Sa8CodQacZAUkPH6oKOS-104">
          <mxGeometry relative="1" as="geometry" />
        </mxCell>
        <mxCell id="Sa8CodQacZAUkPH6oKOS-91" value="utils.py" style="whiteSpace=wrap;html=1;rounded=1;glass=0;strokeWidth=1;shadow=0;direction=west;" vertex="1" parent="WIyWlLk6GJQsqaUBKTNV-1">
          <mxGeometry x="1210" y="640" width="120" height="60" as="geometry" />
        </mxCell>
        <mxCell id="Sa8CodQacZAUkPH6oKOS-103" value="" style="edgeStyle=orthogonalEdgeStyle;rounded=0;orthogonalLoop=1;jettySize=auto;html=1;" edge="1" parent="WIyWlLk6GJQsqaUBKTNV-1" source="Sa8CodQacZAUkPH6oKOS-96" target="Sa8CodQacZAUkPH6oKOS-102">
          <mxGeometry relative="1" as="geometry" />
        </mxCell>
        <mxCell id="Sa8CodQacZAUkPH6oKOS-96" value="indicator.py" style="whiteSpace=wrap;html=1;rounded=1;glass=0;strokeWidth=1;shadow=0;" vertex="1" parent="WIyWlLk6GJQsqaUBKTNV-1">
          <mxGeometry x="1000" y="640" width="120" height="60" as="geometry" />
        </mxCell>
        <mxCell id="Sa8CodQacZAUkPH6oKOS-101" value="" style="edgeStyle=orthogonalEdgeStyle;rounded=0;orthogonalLoop=1;jettySize=auto;html=1;" edge="1" parent="WIyWlLk6GJQsqaUBKTNV-1" source="Sa8CodQacZAUkPH6oKOS-98" target="Sa8CodQacZAUkPH6oKOS-100">
          <mxGeometry relative="1" as="geometry" />
        </mxCell>
        <mxCell id="Sa8CodQacZAUkPH6oKOS-98" value="for each instrument in the list we retrieve the rolling candle data using the fetch_candles function present in the openfx_api.py" style="whiteSpace=wrap;html=1;rounded=1;glass=0;strokeWidth=1;shadow=0;" vertex="1" parent="WIyWlLk6GJQsqaUBKTNV-1">
          <mxGeometry x="750" y="850" width="160" height="97.5" as="geometry" />
        </mxCell>
        <mxCell id="Sa8CodQacZAUkPH6oKOS-100" value="def fetch_candles" style="whiteSpace=wrap;html=1;rounded=1;glass=0;strokeWidth=1;shadow=0;" vertex="1" parent="WIyWlLk6GJQsqaUBKTNV-1">
          <mxGeometry x="770" y="1046.25" width="120" height="60" as="geometry" />
        </mxCell>
        <mxCell id="Sa8CodQacZAUkPH6oKOS-102" value="there pre defined parameters for all the indicators so once any of the functions for the sepcific indictor is called the function runs for example if we call EMA indicator it will go to the def EMA function present in the indicators.py" style="whiteSpace=wrap;html=1;rounded=1;glass=0;strokeWidth=1;shadow=0;" vertex="1" parent="WIyWlLk6GJQsqaUBKTNV-1">
          <mxGeometry x="940" y="842.5" width="240" height="100" as="geometry" />
        </mxCell>
        <mxCell id="Sa8CodQacZAUkPH6oKOS-104" value="before saving the calculated results in the .pkl file we have preproccess it and remove any nan or null values from the calculation so that rest of the codebase runs smoothly we replace all the null values with zero" style="whiteSpace=wrap;html=1;rounded=1;glass=0;strokeWidth=1;shadow=0;" vertex="1" parent="WIyWlLk6GJQsqaUBKTNV-1">
          <mxGeometry x="1230" y="840" width="190" height="110" as="geometry" />
        </mxCell>
        <mxCell id="Sa8CodQacZAUkPH6oKOS-109" value="" style="edgeStyle=orthogonalEdgeStyle;rounded=0;orthogonalLoop=1;jettySize=auto;html=1;" edge="1" parent="WIyWlLk6GJQsqaUBKTNV-1" source="Sa8CodQacZAUkPH6oKOS-106" target="Sa8CodQacZAUkPH6oKOS-108">
          <mxGeometry relative="1" as="geometry" />
        </mxCell>
        <mxCell id="Sa8CodQacZAUkPH6oKOS-111" value="" style="edgeStyle=orthogonalEdgeStyle;rounded=0;orthogonalLoop=1;jettySize=auto;html=1;" edge="1" parent="WIyWlLk6GJQsqaUBKTNV-1" source="Sa8CodQacZAUkPH6oKOS-106" target="Sa8CodQacZAUkPH6oKOS-110">
          <mxGeometry relative="1" as="geometry" />
        </mxCell>
        <mxCell id="Sa8CodQacZAUkPH6oKOS-113" value="" style="edgeStyle=orthogonalEdgeStyle;rounded=0;orthogonalLoop=1;jettySize=auto;html=1;" edge="1" parent="WIyWlLk6GJQsqaUBKTNV-1" source="Sa8CodQacZAUkPH6oKOS-106" target="Sa8CodQacZAUkPH6oKOS-112">
          <mxGeometry relative="1" as="geometry" />
        </mxCell>
        <mxCell id="Sa8CodQacZAUkPH6oKOS-106" value="technicals_manager.py" style="whiteSpace=wrap;html=1;rounded=1;glass=0;strokeWidth=1;shadow=0;" vertex="1" parent="WIyWlLk6GJQsqaUBKTNV-1">
          <mxGeometry x="1480" y="640" width="140" height="60" as="geometry" />
        </mxCell>
        <mxCell id="Sa8CodQacZAUkPH6oKOS-117" value="" style="edgeStyle=orthogonalEdgeStyle;rounded=0;orthogonalLoop=1;jettySize=auto;html=1;" edge="1" parent="WIyWlLk6GJQsqaUBKTNV-1" source="Sa8CodQacZAUkPH6oKOS-108" target="Sa8CodQacZAUkPH6oKOS-116">
          <mxGeometry relative="1" as="geometry" />
        </mxCell>
        <mxCell id="Sa8CodQacZAUkPH6oKOS-108" value="def apply_signal" style="whiteSpace=wrap;html=1;rounded=1;glass=0;strokeWidth=1;shadow=0;" vertex="1" parent="WIyWlLk6GJQsqaUBKTNV-1">
          <mxGeometry x="1390" y="1020" width="120" height="60" as="geometry" />
        </mxCell>
        <mxCell id="Sa8CodQacZAUkPH6oKOS-119" value="" style="edgeStyle=orthogonalEdgeStyle;rounded=0;orthogonalLoop=1;jettySize=auto;html=1;" edge="1" parent="WIyWlLk6GJQsqaUBKTNV-1" source="Sa8CodQacZAUkPH6oKOS-110" target="Sa8CodQacZAUkPH6oKOS-118">
          <mxGeometry relative="1" as="geometry" />
        </mxCell>
        <mxCell id="Sa8CodQacZAUkPH6oKOS-110" value="def apply_SL" style="whiteSpace=wrap;html=1;rounded=1;glass=0;strokeWidth=1;shadow=0;" vertex="1" parent="WIyWlLk6GJQsqaUBKTNV-1">
          <mxGeometry x="1580" y="1020" width="120" height="60" as="geometry" />
        </mxCell>
        <mxCell id="Sa8CodQacZAUkPH6oKOS-121" value="" style="edgeStyle=orthogonalEdgeStyle;rounded=0;orthogonalLoop=1;jettySize=auto;html=1;" edge="1" parent="WIyWlLk6GJQsqaUBKTNV-1" source="Sa8CodQacZAUkPH6oKOS-112" target="Sa8CodQacZAUkPH6oKOS-120">
          <mxGeometry relative="1" as="geometry" />
        </mxCell>
        <mxCell id="Sa8CodQacZAUkPH6oKOS-112" value="def apply_TP" style="whiteSpace=wrap;html=1;rounded=1;glass=0;strokeWidth=1;shadow=0;" vertex="1" parent="WIyWlLk6GJQsqaUBKTNV-1">
          <mxGeometry x="1740" y="1020" width="120" height="60" as="geometry" />
        </mxCell>
        <mxCell id="Sa8CodQacZAUkPH6oKOS-116" value="the apply_signal function contain the conditions required for the strategy to work it where we write and apply those conditions to the live data and loop it until those given conditions are meet&amp;nbsp;" style="whiteSpace=wrap;html=1;rounded=1;glass=0;strokeWidth=1;shadow=0;" vertex="1" parent="WIyWlLk6GJQsqaUBKTNV-1">
          <mxGeometry x="1290" y="1220" width="210" height="90" as="geometry" />
        </mxCell>
        <mxCell id="Sa8CodQacZAUkPH6oKOS-118" value="when the conditions are met and the apply_signal function provides a buy or sell signal the stop loss is calculated based on the risk management params&amp;nbsp;" style="whiteSpace=wrap;html=1;rounded=1;glass=0;strokeWidth=1;shadow=0;" vertex="1" parent="WIyWlLk6GJQsqaUBKTNV-1">
          <mxGeometry x="1550" y="1220" width="180" height="90" as="geometry" />
        </mxCell>
        <mxCell id="Sa8CodQacZAUkPH6oKOS-120" value="it work the same as the apply_SL function and sets a take profile value based on the risk management params" style="whiteSpace=wrap;html=1;rounded=1;glass=0;strokeWidth=1;shadow=0;" vertex="1" parent="WIyWlLk6GJQsqaUBKTNV-1">
          <mxGeometry x="1800" y="1220" width="160" height="90" as="geometry" />
        </mxCell>
        <mxCell id="Sa8CodQacZAUkPH6oKOS-129" value="" style="edgeStyle=orthogonalEdgeStyle;rounded=0;orthogonalLoop=1;jettySize=auto;html=1;" edge="1" parent="WIyWlLk6GJQsqaUBKTNV-1" source="Sa8CodQacZAUkPH6oKOS-122" target="Sa8CodQacZAUkPH6oKOS-128">
          <mxGeometry relative="1" as="geometry" />
        </mxCell>
        <mxCell id="Sa8CodQacZAUkPH6oKOS-132" value="" style="edgeStyle=orthogonalEdgeStyle;rounded=0;orthogonalLoop=1;jettySize=auto;html=1;" edge="1" parent="WIyWlLk6GJQsqaUBKTNV-1" source="Sa8CodQacZAUkPH6oKOS-122" target="Sa8CodQacZAUkPH6oKOS-128">
          <mxGeometry relative="1" as="geometry" />
        </mxCell>
        <mxCell id="Sa8CodQacZAUkPH6oKOS-133" value="" style="edgeStyle=orthogonalEdgeStyle;rounded=0;orthogonalLoop=1;jettySize=auto;html=1;" edge="1" parent="WIyWlLk6GJQsqaUBKTNV-1" source="Sa8CodQacZAUkPH6oKOS-122" target="Sa8CodQacZAUkPH6oKOS-128">
          <mxGeometry relative="1" as="geometry" />
        </mxCell>
        <mxCell id="Sa8CodQacZAUkPH6oKOS-135" value="" style="edgeStyle=orthogonalEdgeStyle;rounded=0;orthogonalLoop=1;jettySize=auto;html=1;" edge="1" parent="WIyWlLk6GJQsqaUBKTNV-1" source="Sa8CodQacZAUkPH6oKOS-122" target="Sa8CodQacZAUkPH6oKOS-134">
          <mxGeometry relative="1" as="geometry" />
        </mxCell>
        <mxCell id="Sa8CodQacZAUkPH6oKOS-122" value="technicals_manager.py" style="whiteSpace=wrap;html=1;rounded=1;glass=0;strokeWidth=1;shadow=0;" vertex="1" parent="WIyWlLk6GJQsqaUBKTNV-1">
          <mxGeometry x="1960" y="670" width="139" height="60" as="geometry" />
        </mxCell>
        <mxCell id="Sa8CodQacZAUkPH6oKOS-124" value="openfx_api.py" style="whiteSpace=wrap;html=1;rounded=1;glass=0;strokeWidth=1;shadow=0;" vertex="1" parent="WIyWlLk6GJQsqaUBKTNV-1">
          <mxGeometry x="2520" y="680" width="120" height="60" as="geometry" />
        </mxCell>
        <mxCell id="Sa8CodQacZAUkPH6oKOS-126" value="trade_manager.py" style="whiteSpace=wrap;html=1;rounded=1;glass=0;strokeWidth=1;shadow=0;" vertex="1" parent="WIyWlLk6GJQsqaUBKTNV-1">
          <mxGeometry x="2835" y="680" width="120" height="60" as="geometry" />
        </mxCell>
        <mxCell id="Sa8CodQacZAUkPH6oKOS-131" value="" style="edgeStyle=orthogonalEdgeStyle;rounded=0;orthogonalLoop=1;jettySize=auto;html=1;" edge="1" parent="WIyWlLk6GJQsqaUBKTNV-1" source="Sa8CodQacZAUkPH6oKOS-128" target="Sa8CodQacZAUkPH6oKOS-130">
          <mxGeometry relative="1" as="geometry" />
        </mxCell>
        <mxCell id="Sa8CodQacZAUkPH6oKOS-128" value="def process_candles" style="whiteSpace=wrap;html=1;rounded=1;glass=0;strokeWidth=1;shadow=0;" vertex="1" parent="WIyWlLk6GJQsqaUBKTNV-1">
          <mxGeometry x="1959" y="810" width="140" height="60" as="geometry" />
        </mxCell>
        <mxCell id="Sa8CodQacZAUkPH6oKOS-130" value="this function takes in everything from calculating the spread, ensuring there is required columns in the data like ask_c and bid_c also prints the results after the strategy is executed&amp;nbsp;" style="whiteSpace=wrap;html=1;rounded=1;glass=0;strokeWidth=1;shadow=0;" vertex="1" parent="WIyWlLk6GJQsqaUBKTNV-1">
          <mxGeometry x="1900" y="915" width="260" height="120" as="geometry" />
        </mxCell>
        <mxCell id="Sa8CodQacZAUkPH6oKOS-137" value="" style="edgeStyle=orthogonalEdgeStyle;rounded=0;orthogonalLoop=1;jettySize=auto;html=1;" edge="1" parent="WIyWlLk6GJQsqaUBKTNV-1" source="Sa8CodQacZAUkPH6oKOS-134" target="Sa8CodQacZAUkPH6oKOS-136">
          <mxGeometry relative="1" as="geometry" />
        </mxCell>
        <mxCell id="Sa8CodQacZAUkPH6oKOS-134" value="def&amp;nbsp; get_trade_decision" style="whiteSpace=wrap;html=1;rounded=1;glass=0;strokeWidth=1;shadow=0;" vertex="1" parent="WIyWlLk6GJQsqaUBKTNV-1">
          <mxGeometry x="2200" y="810" width="150" height="60" as="geometry" />
        </mxCell>
        <mxCell id="Sa8CodQacZAUkPH6oKOS-136" value="this function gets all components need to get a decision such as candle_time granularity, etc" style="whiteSpace=wrap;html=1;rounded=1;glass=0;strokeWidth=1;shadow=0;" vertex="1" parent="WIyWlLk6GJQsqaUBKTNV-1">
          <mxGeometry x="2175" y="920" width="200" height="110" as="geometry" />
        </mxCell>
        <mxCell id="Sa8CodQacZAUkPH6oKOS-138" value="logging" style="whiteSpace=wrap;html=1;rounded=1;glass=0;strokeWidth=1;shadow=0;" vertex="1" parent="WIyWlLk6GJQsqaUBKTNV-1">
          <mxGeometry x="3670" y="370" width="120" height="60" as="geometry" />
        </mxCell>
        <mxCell id="Sa8CodQacZAUkPH6oKOS-140" value="risk management" style="whiteSpace=wrap;html=1;rounded=1;glass=0;strokeWidth=1;shadow=0;" vertex="1" parent="WIyWlLk6GJQsqaUBKTNV-1">
          <mxGeometry x="3990" y="370" width="120" height="60" as="geometry" />
        </mxCell>
      </root>
    </mxGraphModel>
  </diagram>
</mxfile>
